<?xml version="1.0" standalone="no"?>
<!DOCTYPE svg PUBLIC "-//W3C//DTD SVG 20010904//EN"
 "http://www.w3.org/TR/2001/REC-SVG-20010904/DTD/svg10.dtd">
<svg version="1.0" xmlns="http://www.w3.org/2000/svg"
 width="700.000000pt" height="700.000000pt" viewBox="0 0 700.000000 700.000000"
 preserveAspectRatio="xMidYMid meet">
<metadata>
Created by potrace 1.11, written by Peter Selinger 2001-2013
</metadata>
<g transform="translate(0.000000,700.000000) scale(0.100000,-0.100000)"
fill="#000000" stroke="none">
<path d="M3489 6346 c-2 -2 -40 -7 -84 -10 -44 -4 -91 -9 -105 -11 -14 -2 -47
-6 -75 -9 -46 -5 -75 -8 -205 -21 -25 -3 -70 -7 -100 -11 -30 -3 -71 -7 -90
-9 -19 -2 -78 -8 -130 -14 -52 -5 -122 -13 -155 -16 -33 -4 -73 -8 -90 -10
-16 -2 -61 -7 -100 -10 -38 -4 -83 -8 -100 -10 -89 -11 -134 -17 -179 -21 -28
-2 -71 -6 -96 -9 -25 -3 -74 -7 -110 -10 -79 -7 -168 -24 -195 -37 -40 -21
-80 -68 -243 -288 -92 -124 -172 -232 -179 -240 -10 -12 -459 -614 -516 -691
-9 -13 -121 -163 -248 -334 -127 -170 -238 -323 -246 -339 -26 -50 -28 -127
-5 -178 12 -29 157 -206 388 -474 203 -236 517 -602 699 -814 182 -212 472
-549 644 -750 172 -201 325 -379 340 -395 31 -36 197 -230 226 -264 11 -13 25
-29 30 -35 8 -9 388 -451 451 -526 23 -26 99 -114 143 -165 14 -17 66 -76 114
-133 99 -115 141 -142 220 -144 90 -3 130 24 258 174 63 73 116 135 119 138 3
3 100 115 215 250 115 135 222 259 236 275 40 46 109 126 155 181 23 27 52 60
64 74 23 26 43 49 215 250 59 69 129 150 155 180 26 30 132 154 235 275 104
121 205 238 224 261 41 45 42 47 205 239 65 77 124 145 130 150 6 6 21 23 33
38 18 23 99 117 138 161 6 6 93 108 194 226 101 118 195 229 210 245 250 286
468 548 482 580 23 51 20 141 -8 186 -11 19 -132 185 -269 369 -477 639 -720
965 -764 1025 -24 33 -48 65 -52 70 -5 6 -65 87 -135 180 -69 94 -137 183
-152 198 -38 41 -92 64 -172 72 -48 5 -150 16 -189 20 -14 2 -59 6 -100 10
-41 3 -82 8 -90 10 -8 2 -46 7 -85 10 -104 9 -313 31 -380 40 -16 2 -66 7
-110 10 -44 4 -87 8 -95 10 -8 2 -44 6 -80 9 -36 4 -81 9 -100 11 -19 2 -66 7
-105 10 -38 3 -81 8 -95 10 -28 5 -81 11 -185 20 -38 4 -77 8 -86 11 -8 2 -17
2 -20 0z m-527 -558 c-50 -65 -457 -589 -502 -648 -14 -18 -51 -66 -83 -106
-31 -41 -96 -125 -145 -187 -48 -63 -91 -114 -97 -113 -11 1 -12 5 -20 106 -4
41 -8 82 -10 90 -2 8 -7 48 -10 89 -4 41 -8 83 -10 92 -2 10 -6 49 -10 86 -3
37 -8 79 -10 93 -2 14 -7 57 -10 95 -4 39 -9 82 -11 97 -5 30 -11 87 -20 188
-3 35 -8 68 -10 72 -3 5 5 8 18 9 13 0 30 2 38 3 8 2 51 7 95 11 44 4 89 9
100 10 11 2 52 6 90 10 68 7 95 10 180 19 22 3 72 8 110 11 39 3 81 8 95 10
14 3 57 7 95 11 39 3 71 7 73 8 1 2 25 4 53 5 l51 1 -50 -62z m1203 48 c72 -8
157 -17 190 -21 64 -6 125 -12 190 -20 22 -3 67 -7 100 -11 33 -3 78 -7 100
-10 22 -2 65 -7 95 -10 30 -3 64 -7 75 -9 11 -2 31 -4 44 -4 23 -1 23 -2 16
-77 -4 -42 -8 -84 -10 -93 -1 -9 -6 -52 -10 -96 -4 -44 -8 -87 -10 -95 -1 -8
-6 -46 -10 -85 -4 -38 -8 -83 -10 -100 -2 -16 -7 -55 -10 -85 -3 -30 -7 -71
-10 -90 -2 -19 -7 -60 -10 -90 -16 -161 -23 -211 -28 -217 -3 -2 -22 20 -43
49 -21 29 -41 55 -44 58 -3 3 -40 50 -83 105 -290 376 -654 846 -679 878 -30
37 -30 37 -6 37 12 0 82 -7 153 -14z m-524 -251 c72 -93 142 -183 155 -200 13
-16 60 -77 105 -135 44 -58 92 -118 104 -135 13 -16 147 -190 299 -385 l274
-355 -539 -3 c-296 -1 -782 -1 -1078 0 l-540 3 255 330 c141 182 266 344 279
360 89 115 458 592 494 638 24 32 48 56 52 55 5 -2 67 -79 140 -173z m-2016
-300 c3 -39 8 -81 10 -95 3 -23 9 -74 20 -180 3 -25 7 -63 10 -85 2 -22 7 -65
10 -95 3 -30 8 -71 10 -90 2 -19 7 -64 11 -100 3 -36 7 -72 9 -80 1 -8 6 -51
10 -95 4 -44 9 -83 12 -87 2 -5 -187 -8 -421 -8 -375 0 -458 4 -418 22 4 2 32
37 61 78 30 41 57 77 60 80 4 3 15 18 24 33 10 16 25 36 32 45 8 9 59 78 114
152 55 74 104 140 109 145 4 6 31 42 60 80 28 39 55 75 60 80 4 6 52 70 106
143 54 73 100 132 101 130 2 -2 6 -35 10 -73z m4131 -420 c193 -258 353 -476
357 -482 7 -10 -79 -13 -416 -13 l-424 0 3 28 c17 160 23 213 34 302 5 41 12
104 15 140 3 36 7 81 10 100 2 19 7 60 10 90 4 30 8 69 10 85 2 17 7 62 11
100 4 39 8 79 10 90 1 11 3 29 3 40 1 17 3 17 15 5 7 -8 170 -226 362 -485z
m-3919 -962 c7 -16 89 -208 183 -428 94 -220 178 -413 185 -430 24 -55 357
-829 380 -885 12 -30 32 -77 45 -105 52 -118 100 -239 92 -230 -5 6 -38 44
-73 85 -35 41 -68 80 -74 86 -11 13 -45 52 -240 279 -75 88 -147 171 -159 185
-27 32 -212 247 -240 280 -136 160 -382 446 -386 450 -3 3 -84 97 -180 210
-96 113 -179 210 -185 216 -5 6 -32 37 -60 69 -27 32 -54 63 -60 69 -5 6 -35
41 -65 76 -30 36 -60 71 -67 78 -7 7 -13 15 -13 18 0 2 204 4 453 4 l452 0 12
-27z m2611 -555 c-138 -321 -258 -601 -268 -623 -10 -22 -78 -179 -150 -350
-73 -170 -140 -328 -150 -350 -10 -22 -30 -69 -45 -105 -15 -36 -36 -83 -46
-105 -10 -22 -29 -68 -43 -102 -22 -54 -48 -113 -86 -198 -5 -11 -28 -65 -51
-120 -22 -55 -51 -122 -64 -150 -12 -27 -25 -60 -29 -72 -4 -13 -10 -23 -14
-23 -4 0 -27 46 -51 103 -25 56 -52 120 -62 142 -10 22 -43 101 -74 175 -32
74 -65 153 -75 175 -10 22 -39 90 -65 150 -26 61 -53 124 -60 140 -7 17 -68
158 -135 315 -67 157 -128 299 -135 315 -8 17 -131 305 -275 640 -144 335
-264 613 -266 617 -3 4 534 8 1194 8 l1199 0 -249 -582z m1613 555 c-12 -14
-43 -51 -70 -82 -27 -31 -151 -175 -276 -321 -124 -146 -239 -278 -253 -295
-15 -16 -42 -48 -61 -70 -18 -22 -55 -65 -81 -95 -26 -30 -89 -104 -141 -165
-51 -60 -96 -112 -99 -115 -3 -3 -30 -34 -60 -70 -30 -36 -69 -81 -86 -100
-17 -19 -114 -132 -215 -250 -101 -118 -188 -220 -194 -226 -13 -15 -48 -55
-115 -134 -30 -36 -68 -79 -83 -96 -15 -18 -35 -40 -43 -50 -10 -13 -8 -4 5
31 19 50 582 1365 625 1460 12 28 76 175 141 328 l118 277 454 0 454 0 -20
-27z"/>
</g>
</svg>
